# xmcd
#
# Track frame offsets: 
#        150
#        18319
#        33827
#        51318
#        65101
#        66358
#        87235
#        89301
#        109278
#        112665
#
# Disc length: 1517 seconds
#
# Revision: 0
# Processed by: cddbd v1.4PL0 Copyright (c) Steve Scherf et al.
# Submitted via: ExactAudioCopy v0.90b4
#
DISCID=8105eb0a
DTITLE=Van Morrison - Taking A Break
DYEAR=2003
DGENRE=Celtic
TTITLE0=Cadillac Baby (Ned Edwards)
TTITLE1=All Blues
TTITLE2=Only A Dream
TTITLE3=Muleskinner Blues (with Ned Edwards)
TTITLE4=Apology > Introducing Chris Barber (Matt Holland)
TTITLE5=Goin' Home (Chris Barber)
TTITLE6=Apology > Introducing Chris Farlowe (Matt Holland)
TTITLE7=Sometimes We Cry (Chris Farlowe)
TTITLE8=Apology > Show is cancelled (Theatr Stooge)
TTITLE9=Rebel Yells
EXTD=
EXTT0=
EXTT1=
EXTT2=
EXTT3=
EXTT4=
EXTT5=
EXTT6=
EXTT7=
EXTT8=
EXTT9=
PLAYORDER=
